<?xml version="1.0" encoding="UTF-8" standalone="no"?>
<svg width="6250px" height="6250px" viewBox="0 0 6250 6250" version="1.1" xmlns="http://www.w3.org/2000/svg" xmlns:xlink="http://www.w3.org/1999/xlink" xmlns:sketch="http://www.bohemiancoding.com/sketch/ns">
    <!-- Generator: Sketch 3.0.4 (8053) - http://www.bohemiancoding.com/sketch -->
    <title>Artboard 1</title>
    <desc>Created with Sketch.</desc>
    <defs></defs>
    <g id="Page-1" stroke="none" stroke-width="1" fill="none" fill-rule="evenodd" sketch:type="MSPage">
        <g id="Artboard-1" sketch:type="MSArtboardGroup">
            <path d="M268.070312,37.7109375 L961.0625,37.7109375 L961.0625,147.78125 L6120.94141,5020.03809 L4769.4375,6250 L2829.14062,6250 L268.070312,492.320312 L268.070312,37.7109375 Z" id="Bracket-Back" fill-opacity="0.7" fill="#417505" sketch:type="MSShapeGroup"></path>
            <g id="iPhone-Portrait-+-iPhone-Portrait-2" sketch:type="MSLayerGroup" transform="translate(3320.000000, 145.000000)">
                <rect id="iPhone-Portrait" fill="#F4F4F4" sketch:type="MSShapeGroup" x="478" y="0" width="2313" height="4875" rx="100"></rect>
                <rect id="iPhone-Landscape" fill="#F4F4F4" sketch:type="MSShapeGroup" transform="translate(2915.500000, 3718.500000) rotate(-90.000000) translate(-2915.500000, -3718.500000) " x="1759" y="1281" width="2313" height="4875" rx="100"></rect>
                <rect id="cable-jack-portrait" fill="#4990E2" sketch:type="MSShapeGroup" x="1488" y="4875" width="308" height="479"></rect>
                <path d="M86,3354 L85,3833 L393,3833 L393,3354 L86,3354 Z" id="cable-jack-landscape" fill="#4990E2" sketch:type="MSShapeGroup" transform="translate(239.000000, 3593.500000) rotate(-90.000000) translate(-239.000000, -3593.500000) "></path>
            </g>
            <g id="Bracket-Phone-Layer-+-Bracket-Phone-Layer-2" sketch:type="MSLayerGroup" transform="translate(2406.000000, 3123.000000)" fill="#BD0FE1" opacity="0.35441931">
                <path d="M330.390612,2711.70308 L-0.260663374,1961.85933 L-0.260663374,3.55271368e-15 L1390.32808,0 L1390.32808,1444.17188 L330.390612,2711.70308 Z" id="Groove-Left" sketch:type="MSShapeGroup"></path>
                <path d="M1355.28125,3079.99998 L2277.23438,1898.29687 L2717.40625,1898.29687 L2717.40625,2698.96875 L2277.23438,3080 L1355.28125,3079.99998 Z" id="Groove-Bottom" sketch:type="MSShapeGroup"></path>
            </g>
            <rect id="Macbook" stroke="#979797" opacity="0.739214086" fill="#000000" sketch:type="MSShapeGroup" x="-836" y="145" width="4444" height="6594" rx="200"></rect>
            <g id="Bracket-Front-+-Bracket-Front-2" sketch:type="MSLayerGroup" transform="translate(267.000000, 38.000000)" fill="#50E3C2" opacity="0.654792444">
                <path d="M0.118898266,0.46875 L694.484774,0.46875 L694.484774,452.679688 L0.118898266,452.679688 L0.118898266,0.46875 Z" id="Bracket-Front" sketch:type="MSShapeGroup"></path>
                <path d="M2914.09375,4982.46875 L5852.34375,4982.46875 L4504.09375,6212 L2914.09375,6212 L2914.09375,4982.46875 Z" id="Bracket-Front-2" sketch:type="MSShapeGroup"></path>
            </g>
            <path d="M3765.5,3584.5 L3765.5,3123.5" id="Line" stroke="#979797" stroke-linecap="square" opacity="0.799999952" sketch:type="MSShapeGroup"></path>
        </g>
    </g>
</svg>