<?xml version="1.0" encoding="UTF-8" standalone="no"?>
<svg width="6250px" height="6250px" viewBox="0 0 6250 6250" version="1.1" xmlns="http://www.w3.org/2000/svg" xmlns:xlink="http://www.w3.org/1999/xlink" xmlns:sketch="http://www.bohemiancoding.com/sketch/ns">
    <!-- Generator: Sketch 3.0.4 (8053) - http://www.bohemiancoding.com/sketch -->
    <title>Artboard 1</title>
    <desc>Created with Sketch.</desc>
    <defs></defs>
    <g id="Page-1" stroke="none" stroke-width="1" fill="none" fill-rule="evenodd" sketch:type="MSPage">
        <g id="Artboard-1" sketch:type="MSArtboardGroup" stroke="#979797">
            <path d="M48.25,39.0625 L645.624,39.0625 L5208.375,5037.1875 L3880.1875,6227.8125 L1941.6875,6221.5625 L42.6875,646.25 L48.25,39.0625 Z" id="Bracket-Back" fill-opacity="0.7" fill="#417505" sketch:type="MSShapeGroup"></path>
            <g id="iPhone-Portrait-+-iPhone-Portrait-2" sketch:type="MSLayerGroup" transform="translate(2328.000000, 145.000000)">
                <rect id="iPhone-Portrait" fill="#F4F4F4" sketch:type="MSShapeGroup" x="579" y="0" width="2313" height="4875" rx="100"></rect>
                <rect id="iPhone-Landscape" fill="#F4F4F4" sketch:type="MSShapeGroup" transform="translate(3016.500000, 3718.500000) rotate(-90.000000) translate(-3016.500000, -3718.500000) " x="1860" y="1281" width="2313" height="4875" rx="100"></rect>
                <rect id="cable-jack-portrait" fill="#4990E2" sketch:type="MSShapeGroup" x="1589" y="4875" width="308" height="579"></rect>
                <path d="M137,3354 L136,3933 L444,3933 L444,3354 L137,3354 Z" id="cable-jack-landscape" fill="#4990E2" sketch:type="MSShapeGroup" transform="translate(290.000000, 3643.500000) rotate(-90.000000) translate(-290.000000, -3643.500000) "></path>
            </g>
            <rect id="Macbook" opacity="0.739214086" fill="#000000" sketch:type="MSShapeGroup" x="-188" y="145" width="2906" height="6594" rx="200"></rect>
            <path d="M2913.5,5019.5 L2913.5,3943.65382" id="Line" stroke-linecap="square" opacity="0.799999952" sketch:type="MSShapeGroup"></path>
        </g>
    </g>
</svg>